<svg xmlns="http://www.w3.org/2000/svg" width="64" height="64" id="whatsapp"><g fill="none" stroke="#646464" stroke-linecap="round" stroke-linejoin="round" stroke-miterlimit="10" stroke-width="2"><path d="M48 1H15.838C7.459 1 1 7.459 1 15.838v32.324C1 56.541 7.459 63 15.838 63h32.324C56.541 63 63 56.541 63 48.162V33M48 1c4.189 0 8.145 1.365 10.891 4.111M63 27v-9"></path><path d="M32.355 13.963c-9.717 0-17.623 7.844-17.623 17.488 0 3.828 1.25 7.369 3.357 10.252l-2.203 6.494 6.773-2.152a17.612 17.612 0 0 0 9.695 2.893c9.719 0 17.625-7.844 17.625-17.486.001-9.645-7.905-17.489-17.624-17.489zm-1.939 19.875c1.963 1.736 3.619 2.277 4.133 2.529.514.258.812.215 1.113-.127.299-.34 1.285-1.488 1.625-2 .344-.508.688-.422 1.158-.252.469.17 2.998 1.402 3.512 1.658.514.254.854.383.984.594.129.211.129 1.234-.299 2.424-.43 1.191-2.529 2.342-3.469 2.424-.941.086-.941.768-6.168-1.273-5.223-2.043-8.52-7.359-8.775-7.697-.26-.34-2.1-2.762-2.1-5.273 0-2.508 1.33-3.742 1.799-4.25.471-.512 1.025-.639 1.371-.639.342 0 .684.043.982.043.301 0 .73-.172 1.158.848.43 1.021 1.455 3.531 1.584 3.787.127.254.215.551.043.893s-.256.553-.512.85c-.26.299-.543.662-.773.895-.258.252-.525.529-.227 1.039"></path><path d="M32.355 52.25c-3.676 0-7.129-.938-10.133-2.588L10.619 53.35 14.4 42.19a20.6 20.6 0 0 1-3.004-10.738c0-11.488 9.383-20.801 20.959-20.801 11.58 0 20.965 9.312 20.965 20.801S43.936 52.25 32.355 52.25z"></path></g></svg>